<svg width="1440" height="900" viewBox="0 0 1440 900" fill="none" xmlns="http://www.w3.org/2000/svg">
  <rect width="1440" height="900" fill="#F4F1E8"/>
  <rect x="46" y="36" width="900" height="220" rx="32" fill="url(#hero)"/>
  <rect x="978" y="36" width="416" height="220" rx="32" fill="#3B5D24"/>
  <rect x="46" y="284" width="1348" height="92" rx="26" fill="#FFFDF9"/>
  <rect x="46" y="404" width="316" height="156" rx="28" fill="#FFFDF9"/>
  <rect x="388" y="404" width="316" height="156" rx="28" fill="#FFFDF9"/>
  <rect x="730" y="404" width="316" height="156" rx="28" fill="#FFFDF9"/>
  <rect x="1072" y="404" width="322" height="156" rx="28" fill="#FFFDF9"/>
  <rect x="46" y="588" width="674" height="264" rx="28" fill="#FFFDF9"/>
  <rect x="744" y="588" width="650" height="264" rx="28" fill="#FFF7EF"/>
  <text x="86" y="96" fill="#B76D2B" font-family="Arial" font-size="18" font-weight="700">AI-ML COMMODITY FORECASTING</text>
  <text x="86" y="152" fill="#21311C" font-family="Arial" font-size="44" font-weight="700">AgriCast AI dashboard for onions, potatoes, and pulses</text>
  <text x="86" y="200" fill="#61725D" font-family="Arial" font-size="22">History, ML forecasts, and confidence bands in one farmer-friendly screen</text>
  <text x="1018" y="96" fill="#F4F1E8" font-family="Arial" font-size="22" font-weight="700">Prediction Stack</text>
  <text x="1018" y="144" fill="#FFFFFF" font-family="Arial" font-size="18">- Weather-aware features</text>
  <text x="1018" y="178" fill="#FFFFFF" font-family="Arial" font-size="18">- Random Forest + optional LSTM</text>
  <text x="1018" y="212" fill="#FFFFFF" font-family="Arial" font-size="18">- 7-30 day forecasts + confidence range</text>
  <text x="84" y="438" fill="#61725D" font-family="Arial" font-size="16">Latest observed price</text>
  <text x="84" y="496" fill="#21311C" font-family="Arial" font-size="36" font-weight="700">Rs. 2,154</text>
  <text x="426" y="438" fill="#61725D" font-family="Arial" font-size="16">Forecast end price</text>
  <text x="426" y="496" fill="#21311C" font-family="Arial" font-size="36" font-weight="700">Rs. 2,262</text>
  <text x="768" y="438" fill="#61725D" font-family="Arial" font-size="16">Expected movement</text>
  <text x="768" y="496" fill="#21311C" font-family="Arial" font-size="36" font-weight="700">+5.02%</text>
  <text x="1110" y="438" fill="#61725D" font-family="Arial" font-size="16">Model accuracy</text>
  <text x="1110" y="496" fill="#21311C" font-family="Arial" font-size="36" font-weight="700">RMSE 54.2</text>
  <path d="M86 776C136 718 186 692 236 700C286 708 336 750 386 738C436 726 486 660 536 650C586 640 636 666 686 618" stroke="#3F7D20" stroke-width="6" stroke-linecap="round"/>
  <path d="M784 778C836 750 886 730 936 690C986 650 1036 672 1086 646C1136 620 1186 592 1236 566C1286 540 1336 526 1360 510" stroke="#B76D2B" stroke-width="6" stroke-linecap="round"/>
  <path d="M784 796C836 770 886 752 936 714C986 676 1036 694 1086 672C1136 648 1186 624 1236 596C1286 570 1336 560 1360 546" stroke="#D4A373" stroke-width="3" stroke-dasharray="8 8" stroke-linecap="round"/>
  <path d="M784 754C836 726 886 708 936 670C986 632 1036 648 1086 622C1136 596 1186 560 1236 536C1286 512 1336 494 1360 478" stroke="#6D9773" stroke-width="3" stroke-dasharray="8 8" stroke-linecap="round"/>
  <defs>
    <linearGradient id="hero" x1="46" y1="36" x2="946" y2="256" gradientUnits="userSpaceOnUse">
      <stop stop-color="#FFFDF9"/>
      <stop offset="1" stop-color="#EAF1DE"/>
    </linearGradient>
  </defs>
</svg>
